<?xml version="1.0" encoding="UTF-8"?>
<svg id="Layer_1" data-name="Layer 1" xmlns="http://www.w3.org/2000/svg" viewBox="0 0 413.66 73.08">
  <defs>
    <style>
      .cls-1 {
        font-family: Orbitron-Bold, Orbitron;
        font-size: 48px;
        font-variation-settings: 'wght' 700;
        font-weight: 700;
      }

      .cls-1, .cls-2 {
        fill: #081d5d;
      }

      .cls-3 {
        letter-spacing: -.05em;
      }

      .cls-4 {
        letter-spacing: -.03em;
      }

      .cls-2 {
        stroke-width: 0px;
      }

      .cls-5 {
        letter-spacing: 0em;
      }

      .cls-6 {
        letter-spacing: -.04em;
      }

      .cls-7 {
        letter-spacing: -.03em;
      }
    </style>
  </defs>
  <g>
    <path class="cls-2" d="M66.01,36.6c-1.28-1.48-3.38-2.23-6.24-2.23-.46,0-.92.02-1.38.05-.52-1.13-1.44-1.8-2.78-1.8-9,0-50.39.24-50.39.24,0,0-4.73-.23-3.36,4.85,1.37,5.08,12.45,24.23,29.06,24.23,9.41,0,13.59-2.89,18.75-7.58,6.27-.64,16.41-4.5,17.58-12.47.32-2.19-.09-3.97-1.23-5.28h0ZM63.81,41.38c-.52,3.54-3.77,5.85-6.4,7.15-1.24.61-2.53,1.11-3.78,1.48,3.24-4.26,4.99-8.79,5.23-12.16.31-.02.61-.03.91-.03,1.78,0,3.03.36,3.62,1.04.45.52.59,1.37.42,2.52h0Z"/>
    <path class="cls-2" d="M65.6,61.25s-14.77,2.21-30.92,2.21c-.59,0-1.19,0-1.79-.01h0s-.06,0-.09,0c-.03,0-.06,0-.09,0h0c-.6,0-1.19.01-1.79.01-16.15,0-30.92-2.21-30.92-2.21l2.08,2.21s.53.09,1.45.24l1.22,1.3s16.64,2.83,26.34,2.83h3.43c9.69,0,26.34-2.83,26.34-2.83l1.22-1.3c.92-.15,1.45-.24,1.45-.24l2.08-2.21Z"/>
    <path class="cls-2" d="M30.02,4.19s3.39,5.21,1.41,9.27c-1.99,4.06-1.16,8.44.25,11.01.41-2.48-.17-7.61,1.57-10.14,1.74-2.52-.33-7.24-3.23-10.14h0Z"/>
    <path class="cls-2" d="M30.93,0s5.07,11.07,3.08,15.13c-1.99,4.06-1.16,8.44.25,11.01.41-2.48-.51-6.83,1.18-9.39C37.97,12.89,34.7,3.77,30.93,0h0Z"/>
  </g>
  <text class="cls-1" transform="translate(93.13 61.03)"><tspan class="cls-5" x="0" y="0">N</tspan><tspan class="cls-6" x="39.6" y="0">e</tspan><tspan x="70.99" y="0">w </tspan><tspan class="cls-3" x="136.51" y="0">W</tspan><tspan class="cls-7" x="190.9" y="0">a</tspan><tspan class="cls-4" x="222.62" y="0">v</tspan><tspan x="259.1" y="0">e</tspan></text>
</svg>